<?xml version="1.0" encoding="utf-8"?>
<!-- Generator: Adobe Illustrator 16.0.3, SVG Export Plug-In . SVG Version: 6.00 Build 0)  -->
<!DOCTYPE svg PUBLIC "-//W3C//DTD SVG 1.1//EN" "http://www.w3.org/Graphics/SVG/1.1/DTD/svg11.dtd">
<svg version="1.1" id="cmyk" xmlns="http://www.w3.org/2000/svg" xmlns:xlink="http://www.w3.org/1999/xlink" x="0px" y="0px"
	 width="255.118px" height="255.117px" viewBox="0 0 255.118 255.117" style="enable-background:new 0 0 255.118 255.117;"
	 xml:space="preserve">
<g>
	<polygon style="fill:#0078c9;" points="255.118,255.117 255.118,127.559 127.559,0 0,127.559 0,255.117 	"/>
	<g>
		<path style="fill:#FFFFFF;" d="M216.03,213.75c0.24,0,0.328,0.088,0.328,0.088l-3.607-11.408l-3.596,11.408
			c0,0,0.082-0.088,0.322-0.088H216.03z M228.651,225.259c-0.949,0.064-3.049,0.178-4.613,0.178c-2.434,0-4.119-0.32-4.818-2.551
			l-1.01-3.184h-10.896l-1.01,3.184c-0.705,2.23-2.234,2.486-4.736,2.551c-2.207,0.057-4.137,0.055-6.428,0
			c-2.383-0.057-3.561-0.559-4.617-1.783l-9.426-10.93c-0.238-0.273-0.297-0.451-0.326-0.629v9.732c0,2.756-0.857,3.607-3.432,3.607
			c-1.346,0-3.516-0.084-4.527-0.176v-29.131h7.959v13.227c0.049-0.371,0.113-0.543,0.322-0.813l9.617-12.414h9.383l-12.074,14.117
			c0,0,9.98,10.826,10.109,10.963c0.197,0.215,0.242,0.449,0.242,0.449s0.018-0.23,0.111-0.457
			c0.094-0.24,10.055-25.072,10.055-25.072h8.434L228.651,225.259z"/>
		<path style="fill:#FFFFFF;" d="M150.686,204.414c0,1.539,1.193,2.486,2.416,2.564c1.059,0.064,4.488-0.037,6.555,0
			c6.863,0.117,9.834,4.643,9.834,9.289c0,4.643-2.844,9.164-9.854,9.26s-12.906-0.004-16.307-0.09v-1.799
			c0-3.396,1.008-4.404,4.588-4.404c0,0,9.932,0.059,10.963,0c1.527-0.09,2.809-1.113,2.809-2.793c0-1.676-1.281-2.719-2.809-2.789
			c-1.016-0.047-3.965,0.045-6.219-0.002c-6.875-0.143-9.643-4.527-9.643-8.883c0-4.35,2.521-8.322,9.334-8.637
			c5.199-0.242,13.172-0.039,15.162-0.002v1.324c0,3.393-1.01,4.404-4.59,4.404c0,0-8.766-0.072-9.824,0
			C151.879,201.941,150.686,202.878,150.686,204.414"/>
		<path style="fill:#FFFFFF;" d="M139.153,225.259c-1.229,0.115-2.99,0.178-4.66,0.178c-2.857,0-3.67-0.791-4.922-2.713
			c-1.131-1.736-9.95-15.074-9.95-15.074s0.164,0.639,0.164,2.875v11.303c0,2.756-0.857,3.609-3.432,3.609
			c-1.344,0-2.863-0.082-3.873-0.178v-29.131h7.105l12.42,18.506c0,0-0.156-0.711-0.156-2.299v-16.207h7.303V225.259z"/>
		<path style="fill:#FFFFFF;" d="M99,213.75c0.236,0,0.328,0.088,0.328,0.088l-3.605-11.408l-3.596,11.408
			c0,0,0.08-0.088,0.318-0.088H99z M91.508,196.128h8.43l11.686,29.131c-0.949,0.064-3.047,0.178-4.615,0.178
			c-2.434,0-4.117-0.32-4.818-2.551l-1.012-3.184H90.283l-1.012,3.184c-0.703,2.23-2.232,2.486-4.734,2.551
			c-2.207,0.057-4.137,0.055-6.428,0c-2.383-0.057-3.561-0.559-4.619-1.783l-9.422-10.93c-0.24-0.273-0.303-0.451-0.328-0.629v9.732
			c0,2.756-0.859,3.607-3.434,3.607c-1.344,0-3.514-0.084-4.525-0.176v-29.131h7.957v13.227c0.049-0.371,0.117-0.543,0.326-0.813
			l9.613-12.414h9.387l-12.076,14.117c0,0,9.98,10.826,10.109,10.963c0.197,0.215,0.242,0.449,0.242,0.449s0.018-0.23,0.109-0.457
			C81.545,220.96,91.508,196.128,91.508,196.128"/>
		<path style="fill:#FFFFFF;" d="M50.961,197.453c0,3.393-1.012,4.404-4.588,4.404c0,0-8.77-0.072-9.828,0
			c-1.223,0.084-2.416,1.021-2.416,2.557c0,1.539,1.193,2.486,2.416,2.564c1.059,0.064,4.49-0.037,6.553,0
			c6.865,0.117,9.834,4.643,9.834,9.289c0,4.643-2.84,9.164-9.85,9.26c-7.012,0.096-12.906-0.004-16.309-0.09v-1.799
			c0-3.396,1.012-4.404,4.588-4.404c0,0,9.934,0.059,10.965,0c1.523-0.09,2.805-1.113,2.805-2.793c0-1.676-1.281-2.719-2.805-2.789
			c-1.016-0.047-3.965,0.045-6.219-0.002c-6.879-0.143-9.641-4.527-9.641-8.883c0-4.35,2.518-8.322,9.332-8.637
			c5.197-0.242,13.168-0.039,15.162-0.002V197.453z"/>
		<g>
			<path style="fill:#FFFFFF;" d="M36.695,176.714l-5.574-7.75h-0.047v7.75h-3.029v-16.146h3.029v7.17h0.047l5.527-7.17h3.748
				l-6.592,7.609l6.869,8.537H36.695z"/>
			<path style="fill:#FFFFFF;" d="M46.801,176.992c-3.725,0-5.898-2.754-5.898-6.5c0-3.656,2.545-5.969,5.898-5.969
				s5.922,2.336,5.922,5.969C52.723,174.193,50.549,176.992,46.801,176.992z M46.801,166.443c-1.92,0-2.869,2.244-2.869,4.049
				c0,1.965,0.625,4.58,2.869,4.58c2.268,0,2.891-2.592,2.891-4.58C49.691,168.64,48.744,166.443,46.801,166.443z"/>
			<path style="fill:#FFFFFF;" d="M63.684,177.037c-0.486-0.717-0.764-1.342-0.855-2.082h-0.047
				c-0.67,1.297-2.127,2.037-3.492,2.037c-3.471,0-5.043-3.008-5.043-6.27c0-3.285,1.295-6.199,4.766-6.199
				c1.504,0,2.543,0.555,3.4,1.689h0.045v-5.922l2.893-0.926v13.023c0,1.457,0.348,2.613,0.902,3.469L63.684,177.037z
				 M59.775,166.443c-1.922,0-2.5,2.66-2.5,4.279c0,1.643,0.578,4.35,2.521,4.35c1.967,0,2.66-2.637,2.66-4.35
				C62.457,169.08,61.672,166.443,59.775,166.443z"/>
			<path style="fill:#FFFFFF;" d="M68.354,162.996v-2.705h2.914v2.705H68.354z M68.354,176.714V164.8h2.914v11.914H68.354z"/>
			<path style="fill:#FFFFFF;" d="M78.645,176.992c-2.289,0-3.563-1.48-3.563-3.84v-6.57h-2.197V164.8h2.197v-2.43l2.893-0.924
				v3.354h2.428v1.781h-2.428v6.523c0,1.041,0.301,1.967,1.41,1.967c0.533,0,1.064-0.094,1.412-0.277v1.92
				C80.195,176.898,79.523,176.992,78.645,176.992z"/>
			<path style="fill:#FFFFFF;" d="M91.596,176.992c-2.291,0-3.563-1.48-3.563-3.84v-6.57h-2.197V164.8h2.197v-2.43l2.891-0.924
				v3.354h2.43v1.781h-2.43v6.523c0,1.041,0.301,1.967,1.412,1.967c0.531,0,1.064-0.094,1.41-0.277v1.92
				C93.145,176.898,92.475,176.992,91.596,176.992z"/>
			<path style="fill:#FFFFFF;" d="M97.607,171.462c0.115,1.943,1.434,3.748,3.262,3.748c1.111,0,2.129-0.277,2.961-0.787
				l0.764,1.619c-1.041,0.625-2.268,0.949-3.863,0.949c-3.748,0-5.898-2.268-5.898-6.178c0-3.445,1.758-6.291,5.25-6.291
				c4.164,0,5.367,2.799,5.367,6.939H97.607z M100.221,166.304c-1.664,0-2.475,1.92-2.613,3.516h5.043
				C102.559,168.292,101.887,166.304,100.221,166.304z"/>
			<path style="fill:#FFFFFF;" d="M114.168,176.714l-3.84-5.807h-0.047v5.807h-2.891v-16.424l2.891-0.926v10.201h0.047l3.563-4.766
				h3.215l-4.51,5.32l5.041,6.594H114.168z"/>
			<path style="fill:#FFFFFF;" d="M120.549,171.462c0.115,1.943,1.434,3.748,3.262,3.748c1.111,0,2.129-0.277,2.961-0.787
				l0.764,1.619c-1.041,0.625-2.268,0.949-3.863,0.949c-3.748,0-5.898-2.268-5.898-6.178c0-3.445,1.758-6.291,5.25-6.291
				c4.164,0,5.368,2.799,5.368,6.939H120.549z M123.162,166.304c-1.664,0-2.475,1.92-2.613,3.516h5.043
				C125.5,168.292,124.828,166.304,123.162,166.304z"/>
			<path style="fill:#FFFFFF;" d="M132.692,171.462c0.115,1.943,1.434,3.748,3.262,3.748c1.109,0,2.127-0.277,2.961-0.787
				l0.762,1.619c-1.041,0.625-2.266,0.949-3.861,0.949c-3.748,0-5.9-2.268-5.9-6.178c0-3.445,1.758-6.291,5.252-6.291
				c4.164,0,5.367,2.799,5.367,6.939H132.692z M135.305,166.304c-1.666,0-2.475,1.92-2.613,3.516h5.043
				C137.641,168.292,136.971,166.304,135.305,166.304z"/>
		</g>
	</g>
</g>
</svg>
